<svg xmlns="http://www.w3.org/2000/svg" viewBox="0 0 64 64"><rect width="64" height="64" rx="16" fill="#2563eb"/><path d="M18 38c-4 0-7-4-6-8l2-9c1-5 5-8 10-8h16c5 0 9 3 10 8l2 9c1 4-2 8-6 8-3 0-6-2-8-5H26c-2 3-5 5-8 5Z" fill="white"/><path d="M22 21v10M17 26h10" stroke="#2563eb" stroke-width="4" stroke-linecap="round"/><circle cx="41" cy="23" r="2.5" fill="#e60012"/><circle cx="46" cy="28" r="2.5" fill="#16a34a"/><path d="M20 46h24" stroke="white" stroke-width="4" stroke-linecap="round" opacity=".8"/></svg>